# xmcd
#
# Track frame offsets:
#	150
#	19050
#	33795
#	45842
#	70045
#	88655
#	107125
#	126120
#	143753
#	154567
#	167455
#
# Disc length: 2535 seconds
#
# Revision: 1884762490
# Processed by: cddbd v1.5.2PL0 Copyright (c) Steve Scherf et al.
# Submitted via: audiograbber 1.83.01
#
DISCID=7a09e50b
DTITLE=Garth Brooks - Fresh Horses
DYEAR=1995
DGENRE=Country
TTITLE0=The Old Stuff
TTITLE1=Cowboys And Angels
TTITLE2=The Fever
TTITLE3=That Ol' Wind
TTITLE4=Rollin'
TTITLE5=The Change
TTITLE6=The Beaches Of Cheyenne
TTITLE7=To Make You Feel My Love
TTITLE8=It's Midnight Cinderella
TTITLE9=She's Every Woman
TTITLE10=Ireland
EXTD=
EXTT0=
EXTT1=
EXTT2=
EXTT3=
EXTT4=
EXTT5=
EXTT6=
EXTT7=
EXTT8=
EXTT9=
EXTT10=
PLAYORDER=
